<?xml version="1.0" standalone="no"?>
<!DOCTYPE svg PUBLIC "-//W3C//DTD SVG 20010904//EN"
 "http://www.w3.org/TR/2001/REC-SVG-20010904/DTD/svg10.dtd">
<svg version="1.0" xmlns="http://www.w3.org/2000/svg"
 width="496.000000pt" height="496.000000pt" viewBox="0 0 496.000000 496.000000"
 preserveAspectRatio="xMidYMid meet">
<metadata>
Created by potrace 1.11, written by Peter Selinger 2001-2013
</metadata>
<g transform="translate(0.000000,496.000000) scale(0.100000,-0.100000)"
fill="#000000" stroke="none">
<path d="M2309 4956 c-2 -2 -33 -7 -69 -10 -157 -13 -422 -69 -550 -115 -104
-38 -213 -85 -320 -138 -254 -125 -432 -254 -635 -457 -332 -332 -546 -708
-660 -1156 -56 -220 -73 -379 -70 -640 3 -188 5 -218 25 -340 5 -30 12 -71 15
-90 17 -104 75 -302 124 -430 155 -395 422 -761 746 -1021 81 -65 251 -189
260 -189 3 0 33 -17 67 -38 189 -114 497 -231 731 -278 10 -2 26 -5 35 -8 9
-3 37 -8 62 -11 25 -4 61 -9 80 -12 129 -19 510 -26 590 -10 14 3 48 8 75 12
91 11 119 16 220 40 251 60 488 153 695 274 74 43 205 130 245 162 225 184
350 310 489 495 174 232 297 472 377 734 46 149 61 208 75 290 2 14 6 34 9 45
5 25 13 87 24 185 13 112 5 460 -13 570 -24 148 -26 159 -51 260 -87 349 -249
674 -479 960 -124 153 -324 342 -491 462 -224 161 -605 336 -833 383 -9 2 -37
8 -62 14 -25 5 -60 13 -79 16 -19 3 -37 7 -40 9 -3 2 -35 7 -71 11 -36 3 -78
9 -95 11 -37 6 -421 15 -426 10z"/>
</g>
</svg>
